<?xml version="1.0" standalone="no"?>
<!DOCTYPE svg PUBLIC "-//W3C//DTD SVG 20010904//EN"
 "http://www.w3.org/TR/2001/REC-SVG-20010904/DTD/svg10.dtd">
<svg version="1.0" xmlns="http://www.w3.org/2000/svg"
 width="270.000000pt" height="270.000000pt" viewBox="0 0 270.000000 270.000000"
 preserveAspectRatio="xMidYMid meet">
<metadata>
Created by potrace 1.11, written by Peter Selinger 2001-2013
</metadata>
<g transform="translate(0.000000,270.000000) scale(0.100000,-0.100000)"
fill="#000000" stroke="none">
<path d="M1226 2558 c-13 -30 -36 -80 -148 -318 -22 -47 -65 -139 -95 -205
-31 -66 -56 -121 -57 -122 -1 -1 -37 31 -79 72 -42 41 -79 75 -81 75 -2 0 0
-19 5 -42 16 -87 3 -176 -51 -358 -50 -167 -60 -231 -56 -375 9 -316 124 -545
383 -757 72 -58 240 -164 249 -156 2 3 -2 20 -10 39 -8 19 -24 73 -37 119 -24
92 -27 185 -16 506 l5 160 65 180 c109 300 128 391 122 599 -3 144 -7 172 -30
265 -29 112 -121 330 -146 346 -5 3 -15 -10 -23 -28z"/>
<path d="M1440 2380 c0 -5 6 -27 14 -47 56 -158 67 -258 52 -483 -5 -63 -9
-155 -10 -205 -3 -104 1 -86 -70 -278 -97 -262 -128 -418 -119 -603 2 -49 5
-97 7 -109 2 -11 9 -48 15 -83 18 -93 57 -206 108 -310 37 -74 49 -90 59 -81
8 6 14 15 14 20 0 4 29 68 64 143 36 74 99 211 142 303 102 220 95 211 126
176 14 -15 48 -50 77 -78 l53 -50 -7 33 c-7 34 -7 100 -1 162 4 36 13 75 40
170 36 127 55 209 63 271 31 229 -33 492 -163 675 -74 105 -236 257 -329 308
-16 9 -50 30 -75 46 -49 31 -60 35 -60 20z"/>
</g>
</svg>
