<?xml version="1.0" encoding="utf-8"?>
<!-- Generator: Adobe Illustrator 21.0.0, SVG Export Plug-In . SVG Version: 6.00 Build 0)  -->
<svg version="1.1" id="Layer_1" xmlns="http://www.w3.org/2000/svg" xmlns:xlink="http://www.w3.org/1999/xlink" x="0px" y="0px"
	 viewBox="0 0 24 24" enable-background="new 0 0 24 24" xml:space="preserve">
<g>
	<g>
		<path d="M1.8,12.2l4.5-6.6v0H2.2V4.8h5.5v0.6l-4.5,6.5v0h4.5v0.9H1.8V12.2z"/>
		<path d="M9,4.9c0.5-0.1,1.2-0.2,1.9-0.2c1,0,1.7,0.2,2.2,0.6c0.4,0.3,0.7,0.8,0.7,1.4c0,0.8-0.5,1.5-1.4,1.8v0
			c0.8,0.2,1.7,0.8,1.7,2c0,0.7-0.3,1.2-0.7,1.6c-0.6,0.5-1.5,0.8-2.8,0.8c-0.7,0-1.3,0-1.6-0.1V4.9z M10,8.2H11
			c1.1,0,1.8-0.6,1.8-1.4c0-0.9-0.7-1.3-1.8-1.3c-0.5,0-0.8,0-0.9,0.1V8.2z M10,12.1c0.2,0,0.5,0,0.9,0c1.1,0,2.1-0.4,2.1-1.6
			C13,9.4,12,9,10.9,9H10V12.1z"/>
		<path d="M15.5,4.9c0.6-0.1,1.4-0.2,2.2-0.2c1.5,0,2.6,0.3,3.3,1c0.7,0.7,1.1,1.6,1.1,2.9c0,1.3-0.4,2.4-1.2,3.1
			c-0.8,0.8-2,1.2-3.6,1.2c-0.7,0-1.4,0-1.9-0.1V4.9z M16.5,12c0.3,0,0.6,0.1,1.1,0.1c2.2,0,3.4-1.2,3.4-3.4c0-1.9-1.1-3.1-3.3-3.1
			c-0.5,0-0.9,0-1.2,0.1V12z"/>
	</g>
	<g>
		<path d="M5.8,15.7c0.3-0.1,0.6-0.1,1-0.1c0.6,0,0.9,0.1,1.2,0.3c0.2,0.2,0.3,0.5,0.3,0.8c0,0.5-0.3,0.9-0.8,1v0
			c0.3,0.1,0.5,0.4,0.6,0.8c0.1,0.6,0.2,1,0.3,1.1H7.9c-0.1-0.1-0.2-0.5-0.3-1c-0.1-0.6-0.3-0.8-0.8-0.8H6.3v1.8H5.8V15.7z
			 M6.3,17.5h0.5c0.6,0,0.9-0.3,0.9-0.8c0-0.5-0.4-0.8-0.9-0.8c-0.3,0-0.4,0-0.5,0V17.5z"/>
		<path d="M12.8,19.7c-0.1-0.1-0.2-0.2-0.4-0.4c-0.3,0.3-0.7,0.5-1.2,0.5c-0.8,0-1.2-0.5-1.2-1.1c0-0.6,0.3-0.9,0.8-1.2v0
			c-0.2-0.3-0.3-0.6-0.3-0.8c0-0.5,0.4-1,1-1c0.5,0,0.9,0.3,0.9,0.9c0,0.4-0.2,0.8-0.9,1.1v0c0.3,0.4,0.7,0.8,1,1.1
			c0.2-0.3,0.3-0.7,0.4-1.2h0.5c-0.1,0.6-0.3,1.1-0.6,1.5c0.2,0.2,0.4,0.5,0.7,0.7H12.8z M12.2,19c-0.2-0.3-0.7-0.8-1.1-1.3
			c-0.2,0.1-0.5,0.4-0.5,0.8c0,0.5,0.3,0.8,0.8,0.8C11.7,19.4,12,19.2,12.2,19z M10.9,16.5c0,0.3,0.1,0.5,0.3,0.7
			c0.4-0.2,0.7-0.5,0.7-0.8c0-0.2-0.1-0.5-0.5-0.5C11.1,15.9,10.9,16.2,10.9,16.5z"/>
		<path d="M15.2,15.7c0.3,0,0.7-0.1,1.1-0.1c0.8,0,1.3,0.2,1.6,0.5c0.4,0.3,0.6,0.8,0.6,1.5c0,0.7-0.2,1.2-0.6,1.6
			c-0.4,0.4-1,0.6-1.8,0.6c-0.4,0-0.7,0-0.9,0V15.7z M15.7,19.3c0.1,0,0.3,0,0.5,0c1.1,0,1.7-0.6,1.7-1.7c0-1-0.5-1.6-1.6-1.6
			c-0.3,0-0.5,0-0.6,0.1V19.3z"/>
	</g>
	<line fill="none" stroke="#000000" stroke-width="0.5" stroke-miterlimit="10" x1="1.8" y1="13.8" x2="22.2" y2="13.8"/>
</g>
</svg>
