<?xml version="1.0" standalone="no"?>
<!DOCTYPE svg PUBLIC "-//W3C//DTD SVG 20010904//EN"
 "http://www.w3.org/TR/2001/REC-SVG-20010904/DTD/svg10.dtd">
<svg version="1.0" xmlns="http://www.w3.org/2000/svg"
 width="700.000000pt" height="700.000000pt" viewBox="0 0 700.000000 700.000000"
 preserveAspectRatio="xMidYMid meet">
<metadata>
Created by potrace 1.11, written by Peter Selinger 2001-2013
</metadata>
<g transform="translate(0.000000,700.000000) scale(0.100000,-0.100000)"
fill="#000000" stroke="none">
<path d="M2988 5825 c-1 -2 -32 -6 -68 -9 -112 -12 -173 -20 -290 -42 -19 -3
-41 -7 -47 -7 -10 0 -13 -255 -13 -1238 0 -1196 1 -1238 19 -1244 76 -24 673
-30 776 -7 28 6 68 14 90 17 61 8 232 63 305 97 65 31 210 125 210 137 0 3 15
22 33 41 115 124 167 270 163 453 -5 198 -59 310 -219 455 -20 17 -38 32 -41
32 -2 0 -29 15 -60 34 -32 19 -91 47 -132 62 l-76 27 54 22 c183 74 318 223
364 397 18 73 21 202 5 270 -52 223 -248 397 -526 466 -44 11 -98 23 -120 27
-42 7 -421 16 -427 10z m373 -256 c253 -40 395 -172 404 -375 12 -244 -177
-429 -470 -460 -56 -6 -397 -6 -402 0 -4 3 2 6 13 6 19 0 19 12 19 406 0 239
4 408 9 411 33 21 321 29 427 12z m-6 -1114 c131 -21 271 -82 345 -151 180
-168 162 -507 -35 -664 -128 -102 -279 -137 -581 -136 l-197 1 -1 455 c-1 250
1 468 3 484 l4 29 211 -6 c116 -4 229 -9 251 -12z"/>
<path d="M5098 5825 c-2 -1 -39 -6 -82 -10 -43 -4 -86 -8 -95 -10 -9 -1 -45
-6 -81 -11 -36 -4 -67 -8 -70 -9 -3 -1 -36 -5 -75 -10 -38 -4 -79 -11 -91 -15
l-21 -8 0 -1230 0 -1230 45 -7 c24 -4 54 -9 65 -12 37 -9 648 -11 717 -3 36 5
85 11 110 13 221 25 463 111 630 223 131 88 268 225 341 339 80 125 155 341
174 498 3 26 8 68 11 95 7 58 7 301 0 334 -3 12 -8 46 -11 73 -43 361 -261
683 -570 837 -97 49 -250 96 -360 112 -22 4 -53 9 -70 12 -16 3 -43 7 -60 10
-34 5 -502 14 -507 9z m316 -290 c233 -13 452 -87 596 -203 170 -137 274 -335
307 -582 9 -63 9 -293 1 -365 -42 -372 -217 -634 -513 -771 -81 -37 -232 -79
-327 -91 -84 -10 -327 -10 -408 1 -36 4 -81 10 -100 11 -19 2 -38 4 -42 4 -5
1 -8 447 -8 993 0 545 3 989 6 986 3 -3 26 0 52 6 26 7 103 13 172 15 69 2
127 4 128 6 2 2 9 2 15 0 7 -2 61 -6 121 -10z"/>
<path d="M430 5666 l0 -123 640 0 c353 -1 643 -3 645 -5 3 -2 -45 -76 -105
-164 -60 -87 -161 -235 -225 -329 -64 -93 -144 -211 -178 -260 -34 -50 -140
-205 -236 -345 -180 -263 -209 -305 -326 -475 -93 -134 -237 -345 -292 -427
-44 -64 -45 -68 -45 -145 0 -43 0 -84 1 -90 1 -10 193 -13 925 -13 l924 0 -1
139 0 139 -671 0 c-369 1 -686 1 -704 1 l-33 1 43 61 c24 34 50 71 58 83 63
91 263 380 507 731 99 143 250 361 336 485 86 124 161 232 167 240 10 15 126
182 240 348 l58 83 0 94 0 95 -864 0 -864 0 0 -124z"/>
<path d="M307 2973 l-4 -23 3202 0 c3328 0 3232 -1 3207 37 -5 6 -1102 10
-3204 9 l-3196 0 -5 -23z"/>
<path d="M1697 2394 c-1 -1 -23 -5 -49 -8 -26 -4 -54 -9 -62 -12 -13 -5 -15
-90 -15 -615 l-1 -609 78 0 78 0 0 278 0 277 124 -1 c107 -1 131 -4 167 -22
68 -35 97 -94 128 -257 20 -105 57 -233 76 -264 12 -18 23 -21 86 -21 72 0 89
9 64 35 -15 16 -48 135 -66 236 -26 146 -87 260 -164 305 l-30 18 57 28 c116
59 173 149 177 278 5 143 -48 243 -156 297 -90 46 -151 56 -332 57 -87 1 -159
1 -160 0z m325 -118 c93 -47 139 -132 131 -244 -6 -92 -49 -156 -133 -194 -36
-17 -70 -22 -170 -25 l-125 -4 1 243 c1 134 2 247 3 252 1 4 54 7 119 5 105
-4 123 -7 174 -33z"/>
<path d="M4730 2389 c-30 -4 -89 -11 -130 -14 -41 -4 -77 -8 -80 -10 -4 -2 -5
-1229 -1 -1271 1 -9 56 -11 204 -8 111 2 218 5 238 8 74 10 167 39 246 77 135
65 263 208 305 342 36 115 49 300 29 402 -6 28 -13 61 -15 75 -12 58 -77 168
-130 220 -96 95 -176 136 -321 167 -79 16 -262 23 -345 12z m300 -127 c218
-49 323 -202 324 -472 0 -181 -32 -290 -115 -384 -100 -113 -222 -154 -481
-160 l-88 -2 0 507 0 507 28 11 c39 15 255 10 332 -7z"/>
<path d="M3293 2370 c-181 -37 -293 -232 -233 -406 11 -30 31 -77 46 -104 15
-28 25 -51 23 -53 -173 -109 -238 -205 -241 -356 -4 -220 139 -354 377 -354
128 0 217 30 319 107 25 20 48 36 51 36 12 0 125 -121 125 -133 0 -10 27 -14
106 -15 l107 -2 -92 93 c-131 133 -127 124 -85 186 57 84 124 245 139 331 16
95 23 85 -63 84 -42 0 -77 -5 -78 -10 -4 -62 -48 -214 -86 -296 l-31 -69 -84
83 c-76 75 -209 225 -226 255 -5 7 11 20 39 34 163 78 247 222 221 377 -26
154 -170 245 -334 212z m99 -79 c53 -21 77 -57 85 -128 6 -50 -24 -118 -70
-159 -53 -47 -138 -103 -150 -98 -19 7 -63 75 -76 117 -26 77 -12 177 31 227
39 47 119 65 180 41z m-128 -585 c14 -19 31 -40 38 -48 7 -7 36 -40 63 -73 64
-77 95 -113 120 -139 34 -37 85 -104 85 -113 0 -14 -101 -75 -143 -88 -30 -9
-58 -8 -125 2 -125 20 -188 65 -218 155 -38 116 6 246 105 314 20 13 39 24 42
24 4 0 18 -15 33 -34z"/>
</g>
</svg>
